<?xml version="1.0" encoding="utf-8"?>
<!-- Generator: Adobe Illustrator 15.1.0, SVG Export Plug-In . SVG Version: 6.00 Build 0)  -->
<!DOCTYPE svg PUBLIC "-//W3C//DTD SVG 1.1//EN" "http://www.w3.org/Graphics/SVG/1.1/DTD/svg11.dtd">
<svg version="1.1" id="Layer_x5F_1" xmlns="http://www.w3.org/2000/svg" xmlns:xlink="http://www.w3.org/1999/xlink" x="0px"
	 y="0px" width="2000px" height="2000px" viewBox="0 0 2000 2000" enable-background="new 0 0 2000 2000" xml:space="preserve">
<g id="Rectangle">
	<path fill="#D91A2A" d="M2000.067,1879.619c0,66.274-53.637,120-119.803,120H119.871c-66.166,0-119.803-53.726-119.803-120v-1760
		c0-66.274,53.637-120,119.803-120h1760.394c66.166,0,119.803,53.725,119.803,120V1879.619z"/>
</g>
<g id="Group_x5F_1">
	<path fill-rule="evenodd" clip-rule="evenodd" fill="#FFFFFF" d="M956,1481l-69,252h55l139-252v-136H956V1481L956,1481z M942,1165
		h125V735H942V1165z"/>
	<g id="Group_x5F_2">
		<path fill-rule="evenodd" clip-rule="evenodd" fill="#FFFFFF" d="M425,780c0-67,11-111,31-131c21-20,65-30,133-30h178
			c74,0,129-11,162-32c34-21,58-58,71-110c12,52,35,88,69,110c34,21,88,32,164,32h178c68,0,112,10,133,30s31,64,31,131v50h103v-46
			c0-118-18-197-53-237s-106-60-212-60h-172c-72,0-121-13-149-38c-27-26-40-72-40-139v-44H949v44c0,67-14,113-42,138
			c-27,26-77,39-149,39H586c-105,0-175,20-211,60c-35,40-53,119-53,237v46h103V780L425,780z"/>
	</g>
</g>
</svg>
